<svg width="158" height="30" viewBox="0 0 158 30" fill="none" xmlns="http://www.w3.org/2000/svg">
<path fill-rule="evenodd" clip-rule="evenodd" d="M143.284 7.82133C143.284 7.03715 143.965 6.40289 144.808 6.40289C145.645 6.40289 146.325 7.03715 146.325 7.82133C146.325 8.59974 145.645 9.23399 144.808 9.23399C143.965 9.23399 143.284 8.59974 143.284 7.82133ZM143.488 10.8023H146.116V21.8673H143.488V10.8023ZM135.761 10.6584C133.179 10.6584 131.156 12.6592 131.156 16.3494C131.156 19.9935 133.121 22.0577 135.749 22.0635C137.668 22.0635 138.534 20.9333 138.947 20.1261H139.104V21.8674H141.691V7.11803H139.057V12.6303H138.947C138.552 11.8346 137.732 10.6584 135.761 10.6584ZM136.488 12.7975C138.18 12.7975 139.11 14.1871 139.11 16.3321C139.11 18.4828 138.162 19.9185 136.488 19.9185C134.749 19.9185 133.836 18.4078 133.836 16.3321C133.836 14.2736 134.738 12.7975 136.488 12.7975ZM56.8629 12.8202H54.6709V18.5401C54.6709 19.5895 55.2 19.8201 55.8628 19.8201C56.1884 19.8201 56.485 19.7567 56.6303 19.7163L57.0722 21.7575C56.7873 21.8498 56.2756 21.9939 55.5256 22.017C53.5488 22.0746 52.0255 21.054 52.0371 18.9725V12.8202H50.4557V10.8021H52.0371V8.14976H54.6651V10.8021H56.8629V12.8202ZM47.5136 13.985C47.3101 13.2585 46.6706 12.6012 45.4554 12.6012C44.3565 12.6012 43.5251 13.1201 43.5309 13.8697C43.5251 14.5097 43.9728 14.9018 45.1066 15.1497L47.0078 15.5534C49.1125 16.0089 50.1358 16.9718 50.1474 18.5517C50.1416 20.6447 48.1706 22.0805 45.3856 22.0805C42.6472 22.0805 40.9262 20.8754 40.6006 18.8457L43.1646 18.6036C43.3914 19.5953 44.1763 20.1143 45.3798 20.1143C46.6299 20.1143 47.4555 19.5434 47.4555 18.7881C47.4555 18.1596 46.9787 17.7502 45.9496 17.5253L44.0484 17.1275C41.9088 16.6893 40.9029 15.6226 40.9087 14.0081C40.9029 11.9612 42.7286 10.6523 45.4205 10.6523C48.0369 10.6523 49.5428 11.8458 49.9091 13.7198L47.5136 13.985ZM62.7352 10.6582C59.5432 10.6582 57.4559 12.9877 57.4559 16.4011C57.4559 19.8723 59.5083 22.0806 62.8747 22.0806C65.4736 22.0806 67.2586 20.8179 67.7237 18.8978L65.2702 18.6268C64.9155 19.5609 64.0434 20.051 62.9096 20.051C61.2061 20.051 60.0839 18.9439 60.0607 17.0469H67.8342V16.2455C67.8342 12.3649 65.4795 10.6582 62.7352 10.6582ZM62.7701 12.6878C64.2817 12.6878 65.2992 13.7834 65.3109 15.2883H60.0665C60.1479 13.8756 61.2002 12.6878 62.7701 12.6878ZM69.0376 10.8025H71.5842V12.6476H71.7005C72.1075 11.3676 73.1773 10.6468 74.4506 10.6468C74.7413 10.6468 75.1541 10.6757 75.3925 10.716V13.1147C75.1657 13.0455 74.6134 12.9648 74.1715 12.9648C72.7238 12.9648 71.6598 13.9565 71.6598 15.3634V21.8675H69.0318V10.8025H69.0376ZM76.1309 21.8673H78.7531V15.3806C78.7531 13.7834 79.7241 12.8608 81.1137 12.8608C82.4742 12.8608 83.2882 13.7488 83.2882 15.2249V21.8673H85.9162V14.8213C85.922 12.1689 84.3987 10.6582 82.0963 10.6582C80.4276 10.6582 79.2764 11.4481 78.7706 12.6821H78.6427V10.8024H76.1309V21.8673ZM87.0557 18.7596C87.0557 16.2687 89.1255 15.6286 91.2884 15.398L91.5941 15.3661C93.3416 15.1841 94.0501 15.1103 94.0501 14.4063V14.3659C94.0501 13.2761 93.3815 12.6592 92.1605 12.6592C90.8756 12.6592 90.1314 13.305 89.8755 14.0661L87.422 13.7201C88.0034 11.702 89.8058 10.6641 92.1489 10.6641C94.2769 10.6641 96.6781 11.5406 96.6781 14.4697V21.8732H94.1489V20.351H94.0617C93.585 21.2793 92.5384 22.0923 90.7884 22.0923C88.6604 22.0866 87.0557 20.9391 87.0557 18.7596ZM94.0559 17.8947V16.5916C93.7398 16.8413 92.5449 17.0078 91.8179 17.1091L91.643 17.1336C90.4686 17.3008 89.5848 17.7159 89.5848 18.7192C89.5848 19.6764 90.3698 20.1722 91.4686 20.1722C93.0559 20.1722 94.0559 19.1286 94.0559 17.8947ZM99.934 18.8691C99.0445 18.8691 98.3293 19.5725 98.3351 20.4374C98.3235 21.3196 99.0445 22.023 99.934 22.023C100.795 22.023 101.527 21.3138 101.533 20.4374C101.527 19.5725 100.789 18.8691 99.934 18.8691ZM109.65 13.985C109.446 13.2585 108.807 12.6012 107.591 12.6012C106.493 12.6012 105.661 13.1201 105.667 13.8697C105.661 14.5097 106.109 14.9018 107.243 15.1497L109.144 15.5534C111.249 16.0089 112.272 16.9718 112.283 18.5517C112.278 20.6447 110.307 22.0805 107.522 22.0805C104.783 22.0805 103.062 20.8754 102.737 18.8457L105.301 18.6036C105.527 19.5953 106.312 20.1143 107.516 20.1143C108.766 20.1143 109.591 19.5434 109.591 18.7881C109.591 18.1596 109.115 17.7502 108.086 17.5253L106.184 17.1275C104.045 16.6893 103.039 15.6226 103.045 14.0081C103.039 11.9612 104.865 10.6523 107.557 10.6523C110.173 10.6523 111.679 11.8458 112.045 13.7198L109.65 13.985ZM116.813 12.8202H119.005V10.8021H116.807V8.14976H114.179V10.8021H112.597V12.8202H114.179V18.9725C114.167 21.054 115.69 22.0746 117.667 22.017C118.417 21.9939 118.929 21.8498 119.214 21.7575L118.772 19.7163C118.627 19.7567 118.33 19.8201 118.004 19.8201C117.342 19.8201 116.813 19.5895 116.813 18.5401V12.8202ZM127.301 10.8024H129.929V21.8674H127.383V19.9012H127.266C126.76 21.1408 125.58 22.0115 123.912 22.0115C121.72 22.0115 120.19 20.5066 120.19 17.8485V10.8024H122.818V17.4448C122.818 18.8517 123.662 19.7339 124.923 19.7339C126.086 19.7339 127.295 18.8979 127.295 17.2142V10.8024H127.301ZM152.657 10.6582C149.389 10.6582 147.314 12.9473 147.314 16.3781C147.314 19.7973 149.395 22.0806 152.657 22.0806C155.924 22.0806 158 19.7973 158 16.3781C158 12.9473 155.924 10.6582 152.657 10.6582ZM152.68 12.7282C154.459 12.7282 155.343 14.3484 155.343 16.3723C155.343 18.3962 154.453 19.9933 152.68 19.9933C150.872 19.9933 149.988 18.3962 149.988 16.3723C149.988 14.3484 150.872 12.7282 152.68 12.7282Z" fill="black"/>
<g clip-path="url(#clip0)">
<rect x="1" y="1.5" width="27" height="27" rx="8" fill="#374999"/>
<mask id="mask0" mask-type="alpha" maskUnits="userSpaceOnUse" x="1" y="6" width="25" height="23">
<path d="M10.18 24.135C10.18 26.259 9.25 27.93 8.785 28.5L1 28.5V7.08003C7.624 4.77603 12.7 9.09003 14.41 11.535C19.666 13.587 23.92 16.14 25.39 17.16C14.095 13.605 10.72 16.08 9.46 17.34C8.452 18.348 9.04 20.01 9.46 20.715C10.045 21.84 10.18 22.785 10.18 24.135Z" fill="#C4C4C4"/>
</mask>
<g mask="url(#mask0)">
<rect x="1" y="6.45001" width="24.39" height="22.05" fill="white"/>
<path fill-rule="evenodd" clip-rule="evenodd" d="M7.48872 14.9004C9.83704 13.6912 11.2828 12.9467 15.76 13.92C15.7552 13.9105 15.7495 13.8878 15.7403 13.852C15.6632 13.5497 15.3466 12.308 13.375 10.095C10.675 7.66498 9.37 7.34998 9.37 7.34998C4.42 5.09998 1 7.07998 1 7.07998V12.39C2.836 12.426 5.305 14.475 6.31 15.495C6.73476 15.2887 7.1227 15.0889 7.48872 14.9004ZM7.75 10.86C7.10383 10.86 6.58 11.3838 6.58 12.03C6.58 12.6762 7.10383 13.2 7.75 13.2C8.39618 13.2 8.92 12.6762 8.92 12.03C8.92 11.3838 8.39618 10.86 7.75 10.86Z" fill="#231F20"/>
<path d="M10.5399 13.65C11.8719 14.298 12.9549 15.24 13.3299 15.63L26.1099 18.465V15.135L14.4099 11.535C15.1299 12.651 15.6099 13.59 15.7599 13.92C13.2849 13.02 10.4499 13.65 10.5399 13.65Z" fill="#E84627"/>
</g>
</g>
<rect x="0.5" y="1" width="28" height="28" rx="8.5" stroke="black" stroke-opacity="0.1"/>
<defs>
<clipPath id="clip0">
<rect x="1" y="1.5" width="27" height="27" rx="8" fill="white"/>
</clipPath>
</defs>
</svg>
