<svg width="185" height="184" viewBox="0 0 185 184" fill="none" xmlns="http://www.w3.org/2000/svg">
<g clip-path="url(#clip0)">
<rect x="1" y="1" width="182.293" height="182" rx="60" fill="#374999"/>
<mask id="mask0" mask-type="alpha" maskUnits="userSpaceOnUse" x="1" y="34" width="165" height="150">
<path d="M62.9796 153.577C62.9796 167.894 56.7006 179.158 53.5611 183L1 183V38.6135C45.7225 23.0828 79.9936 52.1624 91.5389 68.6435C127.025 82.4755 155.747 99.6846 165.671 106.56C89.4121 82.5969 66.6255 99.2802 58.1185 107.774C51.3129 114.568 55.2828 125.771 58.1185 130.524C62.0682 138.107 62.9796 144.477 62.9796 153.577Z" fill="#C4C4C4"/>
</mask>
<g mask="url(#mask0)">
<rect x="1" y="34.3667" width="164.671" height="148.633" fill="white"/>
<path fill-rule="evenodd" clip-rule="evenodd" d="M44.8092 91.3288C60.6641 83.1776 70.4254 78.1591 100.654 84.7199C100.621 84.6557 100.582 84.5031 100.521 84.2619C100 82.2237 97.8626 73.8542 84.551 58.9366C66.3217 42.5566 57.5108 40.4332 57.5108 40.4332C24.0904 25.2666 1 38.6132 1 38.6132V74.4066C13.3959 74.6492 30.0656 88.461 36.851 95.3366C39.7188 93.9459 42.338 92.5993 44.8092 91.3288ZM46.5734 64.0933C42.2177 64.0933 38.674 67.6242 38.674 71.9799C38.674 76.3356 42.2177 79.8666 46.5734 79.8666C50.929 79.8666 54.4727 76.3356 54.4727 71.9799C54.4727 67.6242 50.929 64.0933 46.5734 64.0933Z" fill="#231F20"/>
<path d="M65.4102 82.9C74.4033 87.268 81.7152 93.6178 84.2471 96.2467L170.532 115.357V92.91L91.5388 68.6434C96.3999 76.166 99.6407 82.4956 100.653 84.72C83.9433 78.6534 64.8025 82.9 65.4102 82.9Z" fill="#E84627"/>
</g>
</g>
<rect x="0.5" y="0.5" width="183.293" height="183" rx="60.5" stroke="black" stroke-opacity="0.1"/>
<defs>
<clipPath id="clip0">
<rect x="1" y="1" width="182.293" height="182" rx="60" fill="white"/>
</clipPath>
</defs>
</svg>
